<?xml version="1.0" encoding="utf-8"?>
<!-- Generator: Adobe Illustrator 28.3.0, SVG Export Plug-In . SVG Version: 6.00 Build 0)  -->
<svg version="1.1" id="Layer_1" xmlns="http://www.w3.org/2000/svg" xmlns:xlink="http://www.w3.org/1999/xlink" x="0px" y="0px"
	 viewBox="0 0 1080 1080" style="enable-background:new 0 0 1080 1080;" xml:space="preserve">
<style type="text/css">
	.st0{fill:#FFFFFF;}
</style>
<g>
	<path d="M1032.7,234.5c-11.3-0.4-24.2-0.7-38.2-0.8v-67.3c0-7.7-3-14.8-8-20.1c-5-5.3-11.9-8.7-19.6-9.2
		c-82.9-5-357.9-9.1-415.4,148.3c-1.1,3.1-1.7,6.4-1.7,9.9v600.4c0,15.2,6.9,29.3,18.9,38.6c8.7,6.8,19.2,10.3,29.9,10.3
		c4,0,8-0.5,12-1.5c173.2-43.6,337.4-48.2,419.8-47c13.2,0.2,25.6-4.8,35-14.1c9.4-9.3,14.6-21.6,14.6-34.9V283.4
		C1080,256.9,1059.2,235.4,1032.7,234.5z M569.4,295.2c0-1.2,0.2-2.2,0.5-3.2c22.5-61.5,85.9-103,188.6-123.5
		c54.3-10.8,110-13.5,152-13.5c23.7,0,43,0.9,55.2,1.6c5.2,0.3,9.2,4.6,9.2,9.8v615.7c0,2.7-1.1,5.2-3.1,7.1c-2,1.9-4.6,2.8-7.3,2.7
		c-35.2-2-105.1-3.8-178.2,6.9c-92.1,13.5-159.5,42.3-200.2,85.6c-4.2,4.4-9.2,2.9-10.6,2.3c-1.5-0.6-6.2-2.9-6.2-9.1V295.2z
		 M1060.4,847.1c0,7.9-3.1,15.4-8.7,20.9c-5.6,5.6-13.1,8.6-21,8.4c-83.4-1.2-249.5,3.5-424.9,47.6c-8.8,2.2-17.9,0.3-25.1-5.3
		c-4.3-3.4-7.6-7.8-9.4-12.8c2.6,0.8,5.3,1.1,8,1.1c7.9,0,15.6-3.2,21.2-9.2c88.8-94.5,300.3-90,363-86.4c8,0.5,16-2.4,21.9-8
		c5.8-5.5,9.2-13.3,9.2-21.4V253.3c14.3,0.1,27,0.4,37.5,0.8c15.9,0.5,28.4,13.4,28.4,29.3V847.1z"/>
	<path class="st0" d="M974.9,166.4v615.7c0,2.7-1.1,5.2-3.1,7.1c-2,1.9-4.6,2.8-7.3,2.7c-35.2-2-105.1-3.8-178.2,6.9
		c-92.1,13.5-159.5,42.3-200.2,85.6c-4.2,4.4-9.2,2.9-10.6,2.3c-1.5-0.6-6.2-2.9-6.2-9.1V295.2c0-1.2,0.2-2.2,0.5-3.2
		c22.5-61.5,85.9-103,188.6-123.5c54.3-10.8,110-13.5,152-13.5c23.7,0,43,0.9,55.2,1.6C970.9,156.9,974.9,161.2,974.9,166.4z"/>
	<path d="M528.5,285.3c-47.7-130.4-244.7-149.9-358-149.9c-23.4,0-43.2,0.8-57.4,1.7c-15.5,0.9-27.6,13.8-27.6,29.3v67.3
		c-14,0.1-26.9,0.4-38.2,0.8C20.8,235.4,0,256.9,0,283.4v563.7c0,13.2,5.2,25.6,14.6,34.9c9.4,9.3,21.8,14.3,35,14.1
		c82.4-1.2,246.6,3.4,419.8,47c4,1,8,1.5,12,1.5c10.7,0,21.2-3.6,29.9-10.3c12-9.4,18.9-23.4,18.9-38.6V295.2
		C530.2,291.8,529.6,288.4,528.5,285.3z M499.3,918.8c-7.2,5.6-16.3,7.5-25.1,5.3c-161.1-40.5-314.3-47.7-402.8-47.7
		c-7.9,0-15.2,0-22,0.1c-8,0.1-15.4-2.9-21-8.4c-5.6-5.6-8.7-13-8.7-20.9V283.4c0-15.9,12.5-28.8,28.4-29.3
		c10.6-0.3,23.2-0.6,37.5-0.8v528.8c0,8.1,3.4,15.8,9.2,21.4c5.9,5.5,13.8,8.4,21.9,8c62.7-3.6,274.2-8,363,86.4
		c5.7,6,13.3,9.2,21.2,9.2c2.7,0,5.4-0.4,8-1.1C506.9,911,503.6,915.4,499.3,918.8z M510.6,877.7c0,6.2-4.8,8.6-6.2,9.1
		c-1.4,0.6-6.4,2.1-10.6-2.3c-40.7-43.3-108-72.1-200.2-85.6c-44.9-6.6-88.6-8.5-123.7-8.5c-22.1,0-40.9,0.7-54.5,1.5
		c-2.7,0.2-5.3-0.8-7.3-2.7c-2-1.9-3.1-4.4-3.1-7.1V166.4c0-2.6,1-4.9,2.7-6.7c1.7-1.7,3.9-2.9,6.5-3.1c34-2.1,122.3-5,207.3,11.9
		c102.7,20.5,166.1,62,188.6,123.5c0.4,0.9,0.5,2,0.5,3.2V877.7z"/>
	<path class="st0" d="M510.6,295.2v582.5c0,6.2-4.8,8.6-6.2,9.1c-1.4,0.6-6.4,2.1-10.6-2.3c-40.7-43.3-108-72.1-200.2-85.6
		c-44.9-6.6-88.6-8.5-123.7-8.5c-22.1,0-40.9,0.7-54.5,1.5c-2.7,0.2-5.3-0.8-7.3-2.7c-2-1.9-3.1-4.4-3.1-7.1V166.4
		c0-2.6,1-4.9,2.7-6.7c1.7-1.7,3.9-2.9,6.5-3.1c34-2.1,122.3-5,207.3,11.9c102.7,20.5,166.1,62,188.6,123.5
		C510.5,293,510.6,294.1,510.6,295.2z"/>
</g>
</svg>
