<?xml version="1.0" encoding="utf-8"?>
<!-- Generator: Adobe Illustrator 28.3.0, SVG Export Plug-In . SVG Version: 6.00 Build 0)  -->
<svg version="1.1" id="Layer_1" xmlns="http://www.w3.org/2000/svg" xmlns:xlink="http://www.w3.org/1999/xlink" x="0px" y="0px"
	 viewBox="0 0 972.9 1061.9" style="enable-background:new 0 0 972.9 1061.9;" xml:space="preserve">
<style type="text/css">
	.st0{fill:#1C75BC;}
</style>
<path class="st0" d="M972.9,688.4c0,206.3-217.8,373.6-486.4,373.6S0,894.7,0,688.4c0-155.6,123.9-289,300-345.2h0c0,0,0,0,0.1,0
	c1.2-0.3,10.7-2.6,25.3-7.5c63.9-20.9,226.1-87.9,226.1-229.9C551.6,47.4,599,0,657.4,0s105.8,47.4,105.8,105.8
	c0,0-0.6,5.9-1.2,16.3c-3.1,52.6-5.5,220.1,79.4,310.8c7.9,8.5,16.6,16.3,26.2,23.3c0,0,0,0,0,0
	C933.4,519.9,972.8,600.6,972.9,688.4L972.9,688.4z"/>
</svg>
